<?xml version="1.0" encoding="UTF-8" standalone="no"?><!DOCTYPE svg PUBLIC "-//W3C//DTD SVG 1.1//EN" "http://www.w3.org/Graphics/SVG/1.1/DTD/svg11.dtd"><svg width="100%" height="100%" viewBox="0 0 105 105" version="1.1" xmlns="http://www.w3.org/2000/svg" xmlns:xlink="http://www.w3.org/1999/xlink" xml:space="preserve" xmlns:serif="http://www.serif.com/" style="fill-rule:evenodd;clip-rule:evenodd;stroke-linejoin:round;stroke-miterlimit:2;"><rect id="Mesa-de-trabajo1" serif:id="Mesa de trabajo1" x="0" y="0" width="104.167" height="104.167" style="fill:none;"/><clipPath id="_clip1"><rect id="Mesa-de-trabajo11" serif:id="Mesa de trabajo1" x="0" y="0" width="104.167" height="104.167"/></clipPath><g clip-path="url(#_clip1)"><g id="Fondo"><rect x="-0.219" y="-0.219" width="104.167" height="104.167" style="fill:#49a0ae;"/><g id="Icono"><path d="M28.778,91.349l-0.151,-0.279l-0.139,-0.859l30.534,-26.348l-51.413,0c-0.929,-3.767 -1.423,-7.714 -1.423,-11.78c-0,-4.065 0.494,-8.013 1.423,-11.779l51.413,-0l-30.566,-26.376l0.171,-1.055l0.03,-0.056l28.779,0l40.346,34.816c0.132,1.466 0.199,2.95 0.199,4.45c-0,1.501 -0.067,2.985 -0.199,4.451l-40.346,34.815l-28.658,0Zm13.06,-1.749c-0.106,0.555 -0.259,1.089 -0.46,1.594l0.021,-0.053c0.197,-0.506 0.347,-1.042 0.45,-1.599l-0.011,0.058Zm-0.252,-70.367c-0.472,1.575 -1.317,2.92 -2.433,3.854l0.041,-0.035c1.11,-0.945 1.947,-2.298 2.41,-3.879l-0.018,0.06Zm0.174,-0.663c-0.011,0.05 -0.023,0.099 -0.035,0.149c0.012,-0.05 0.024,-0.099 0.035,-0.149Z" style="fill:#fff;"/></g></g></g></svg>